<?xml version="1.0" standalone="no"?>
<!DOCTYPE svg PUBLIC "-//W3C//DTD SVG 1.1//EN" "http://www.w3.org/Graphics/SVG/1.1/DTD/svg11.dtd" >
<svg xmlns="http://www.w3.org/2000/svg" xmlns:xlink="http://www.w3.org/1999/xlink" version="1.1">
<metadata>
Created by FontForge 20170731 at Fri Jan  1 02:30:17 1904
 By Aleksey,,,
Copyright c 1992 Southern Software, Inc. All Rights Reserved
</metadata>
<defs>
<font id="NovaLightUltraSSiLightUltraCondensed" horiz-adv-x="569" >
  <font-face 
    font-family="Nova Light Ultra SSi"
    font-weight="700"
    font-stretch="normal"
    units-per-em="2048"
    panose-1="2 11 8 0 0 0 0 0 0 0"
    ascent="1638"
    descent="-410"
    x-height="1126"
    cap-height="1493"
    bbox="-940 -258 2048 1810"
    underline-thickness="50"
    underline-position="-175"
    unicode-range="U+0020-F002"
  />
<missing-glyph horiz-adv-x="1536" 
d="M256 0v1280h1024v-1280h-1024zM1247 33v1214h-958v-1214h958z" />
    <glyph glyph-name=".notdef" horiz-adv-x="1536" 
d="M256 0v1280h1024v-1280h-1024zM1247 33v1214h-958v-1214h958z" />
    <glyph glyph-name=".null" horiz-adv-x="0" 
 />
    <glyph glyph-name="nonmarkingreturn" horiz-adv-x="0" 
 />
    <glyph glyph-name="space" unicode=" " horiz-adv-x="283" 
 />
    <glyph glyph-name="exclam" unicode="!" horiz-adv-x="528" 
d="M205 362l-17 1131h152l-16 -1131h-119zM197 0v158h135v-158h-135z" />
    <glyph glyph-name="quotedbl" unicode="&#x22;" 
d="M119 1155v338h102v-338h-102zM348 1155v338h103v-338h-103z" />
    <glyph glyph-name="numbersign" unicode="#" horiz-adv-x="565" 
d="M311 582l47 342h-102l-47 -342h102zM371 1016l63 477h103l-64 -477h96v-92h-108l-47 -342h98v-93h-111l-65 -489h-103l66 489h-102l-66 -489h-102l65 489h-98v93h110l48 342h-101v92h113l63 477h103l-64 -477h103z" />
    <glyph glyph-name="dollar" unicode="$" horiz-adv-x="565" 
d="M362 1108v147q0 97 -73 97q-35 0 -58.5 -21t-23.5 -63v-164q0 -53 31 -105l215 -372q29 -49 39 -93.5t10 -101.5v-172q0 -91 -43 -149t-123 -72v-158h-111v158q-80 9 -123 57q-39 52 -39 133v185h136v-168q0 -103 84 -103t84 117v172q0 70 -35 131l-217 379
q-43 74 -43 154v159q0 82 40.5 133t112.5 66v156h111v-156q78 -8 120 -53.5t42 -134.5v-158h-136z" />
    <glyph glyph-name="percent" unicode="%" horiz-adv-x="983" 
d="M63 944v402q0 82 41.5 120.5t124.5 38.5q84 0 125 -38.5t41 -120.5v-402q0 -84 -40.5 -123t-125.5 -39q-84 0 -125 39t-41 123zM285 928v432q0 63 -56 63q-55 0 -55 -63v-432q4 -64 55 -64q56 0 56 64zM588 150v401q0 83 41 121.5t125 38.5q166 0 166 -160v-401
q0 -84 -40.5 -123t-125.5 -39t-125.5 39t-40.5 123zM809 135v430q0 64 -55 64q-56 0 -56 -64v-430q4 -65 56 -65q55 0 55 65zM184 -12l512 1517h103l-512 -1517h-103z" />
    <glyph glyph-name="ampersand" unicode="&#x26;" horiz-adv-x="758" 
d="M588 0l-29 74q-42 -46 -89.5 -66t-117.5 -20q-127 0 -193.5 66.5t-66.5 178.5v306q0 81 37.5 156.5t85.5 103.5l-45 84q-51 91 -51 239v146q0 237 221 237q76 0 124 -20t71.5 -68.5t23.5 -128.5v-166q0 -87 -24 -142t-82 -110l-91 -84l193 -454h4q8 44 8 88v321h111v-270
q0 -95 -9 -157.5t-32 -116.5l86 -197h-135zM506 156l-240 538q-47 -63 -47 -202v-224q0 -88 41.5 -133t114.5 -45q32 0 63.5 14.5t67.5 51.5zM440 1102v174q0 127 -98 127q-96 0 -96 -127v-146q0 -59 4.5 -95.5t18 -73t34.5 -82.5q137 115 137 223z" />
    <glyph glyph-name="quotesingle" unicode="'" horiz-adv-x="344" 
d="M121 1155v338h102v-338h-102z" />
    <glyph glyph-name="parenleft" unicode="(" horiz-adv-x="342" 
d="M201 1518h102q-52 -202 -82.5 -423t-30.5 -448q0 -139 11.5 -295t36.5 -303t63 -272h-102q-45 122 -76 269t-45.5 302.5t-14.5 298.5q0 131 10 250t31.5 244.5t44 212t52.5 164.5z" />
    <glyph glyph-name="parenright" unicode=")" horiz-adv-x="342" 
d="M141 -223h-102q35 135 58.5 267.5t39 292.5t15.5 310q0 110 -6 220t-20.5 231t-36 227.5t-48.5 192.5h102q34 -90 60 -198t42 -216t25 -230.5t9 -226.5q0 -130 -10 -255.5t-29 -236.5t-45 -208.5t-54 -169.5z" />
    <glyph glyph-name="asterisk" unicode="*" 
d="M287 1305l69 188l107 -68l-119 -151l188 29v-121l-188 26l119 -151l-107 -64l-69 189h-4l-70 -189l-107 64l119 151l-188 -26v121l188 -29l-119 151l107 68l70 -188h4z" />
    <glyph glyph-name="plus" unicode="+" horiz-adv-x="1229" 
d="M563 575v472h103v-472h467v-104h-467v-471h-103v471h-467v104h467z" />
    <glyph glyph-name="comma" unicode="," horiz-adv-x="283" 
d="M-8 -182l74 340h151l-115 -340h-110z" />
    <glyph glyph-name="hyphen" unicode="-" horiz-adv-x="340" 
d="M47 563v115h246v-115h-246z" />
    <glyph glyph-name="period" unicode="." horiz-adv-x="283" 
d="M74 0v158h135v-158h-135z" />
    <glyph glyph-name="slash" unicode="/" 
d="M31 -12l397 1517h111l-398 -1517h-110z" />
    <glyph glyph-name="zero" unicode="0" horiz-adv-x="565" 
d="M72 209v1075q0 127 61 174t150 47q211 0 211 -221v-1075q0 -221 -211 -221q-89 0 -150 47t-61 174zM367 195v1103q0 45 -14.5 75t-69.5 30t-69.5 -30t-14.5 -75v-1103q0 -45 14.5 -75t69.5 -30q54 0 69 30t15 75z" />
    <glyph glyph-name="one" unicode="1" horiz-adv-x="565" 
d="M238 0v1337q-63 -52 -136 -92v139q35 17 78.5 48t75.5 61h117v-1493h-135z" />
    <glyph glyph-name="two" unicode="2" horiz-adv-x="565" 
d="M82 1108v174q0 114 51.5 168.5t163.5 54.5q99 0 151 -58t52 -163v-143q0 -98 -33 -197l-285 -827h320v-117h-439v139l277 819q33 92 33 205v117q0 123 -82 123t-82 -123v-172h-127z" />
    <glyph glyph-name="three" unicode="3" horiz-adv-x="565" 
d="M207 713v116h76q38 0 61 27t23 66v387q0 40 -23 67t-61 27t-61 -27t-23 -67v-207h-127v178q0 225 211 225q108 0 159.5 -59t51.5 -166v-338q0 -78 -22 -108.5t-85 -57.5v-4q58 -9 82.5 -40t24.5 -103v-416q0 -68 -22 -119t-70 -78.5t-119 -27.5q-211 0 -211 225v203h127
v-232q0 -39 23 -66.5t61 -27.5t61 27.5t23 66.5v437q0 39 -23 65.5t-61 26.5h-76z" />
    <glyph glyph-name="four" unicode="4" horiz-adv-x="565" 
d="M301 496v839h-4l-156 -839h160zM301 0v393h-262v152l205 948h192v-997h107v-103h-107v-393h-135z" />
    <glyph glyph-name="five" unicode="5" horiz-adv-x="565" 
d="M86 655v838h414v-115h-287v-506h4q46 70 123 70q80 0 125 -47.5t45 -144.5v-537q0 -225 -213 -225q-215 0 -215 225v203h127v-203q0 -61 19 -92t69 -31q49 0 67.5 30t18.5 93v502q0 64 -18.5 93.5t-65.5 29.5q-48 0 -67 -30.5t-19 -92.5v-60h-127z" />
    <glyph glyph-name="six" unicode="6" horiz-adv-x="565" 
d="M367 1073v240q0 27 -10 47t-28 31.5t-44 11.5q-24 0 -44 -12t-31 -32t-11 -46v-447q68 54 135 54q160 0 160 -179v-528q0 -68 -22 -119t-70 -78.5t-119 -27.5q-211 0 -211 225v1067q0 225 211 225q108 0 159.5 -59t51.5 -166v-207h-127zM367 180v549q0 38 -24 63t-60 25
q-34 0 -59 -25t-25 -63v-549q0 -37 24.5 -63.5t59.5 -26.5q36 0 60 26.5t24 63.5z" />
    <glyph glyph-name="seven" unicode="7" horiz-adv-x="565" 
d="M150 0l237 1378h-328v115h447v-143l-221 -1350h-135z" />
    <glyph glyph-name="eight" unicode="8" horiz-adv-x="565" 
d="M367 184v449q0 39 -23 66.5t-61 27.5t-61 -27.5t-23 -66.5v-449q0 -39 23 -66.5t61 -27.5t61 27.5t23 66.5zM367 922v387q0 40 -23 67t-61 27t-61 -27t-23 -67v-387q0 -39 23 -66t61 -27t61 27t23 66zM72 213v416q0 72 24.5 103t81.5 40v4q-61 26 -83.5 57t-22.5 109v338
q0 225 211 225q108 0 159.5 -59t51.5 -166v-338q0 -78 -22 -108.5t-85 -57.5v-4q58 -9 82.5 -40t24.5 -103v-416q0 -68 -22 -119t-70 -78.5t-119 -27.5q-211 0 -211 225z" />
    <glyph glyph-name="nine" unicode="9" horiz-adv-x="565" 
d="M367 180v447q-68 -54 -136 -54q-74 0 -116.5 44.5t-42.5 136.5v526q0 225 211 225q108 0 159.5 -59t51.5 -166v-1067q0 -68 -22 -119t-70 -78.5t-119 -27.5q-211 0 -211 225v207h127v-240q0 -38 22 -64t60 -26q37 0 61.5 26t24.5 64zM367 766v547q0 38 -24 64t-60 26
q-34 0 -59 -26t-25 -64v-547q0 -38 25 -64t59 -26q36 0 60 26t24 64z" />
    <glyph glyph-name="colon" unicode=":" horiz-adv-x="283" 
d="M74 0v158h135v-158h-135zM74 971v155h135v-155h-135z" />
    <glyph glyph-name="semicolon" unicode=";" horiz-adv-x="283" 
d="M-8 -182l74 340h151l-115 -340h-110zM74 971v155h135v-155h-135z" />
    <glyph glyph-name="less" unicode="&#x3c;" horiz-adv-x="1229" 
d="M96 465v117l1037 477v-115l-910 -420l910 -420v-116z" />
    <glyph glyph-name="equal" unicode="=" horiz-adv-x="1229" 
d="M96 672v104h1037v-104h-1037zM96 270v105h1037v-105h-1037z" />
    <glyph glyph-name="greater" unicode="&#x3e;" horiz-adv-x="1229" 
d="M1006 524l-910 420v115l1037 -477v-117l-1037 -477v116z" />
    <glyph glyph-name="question" unicode="?" 
d="M86 1106v190q0 95 48.5 152t152.5 57q196 0 196 -174v-213q0 -92 -30 -178l-70 -192q-25 -67 -25 -170v-216h-118v220q0 138 32 227l54 143q22 56 22 131v232q0 38 -17.5 57t-47.5 19q-32 0 -51 -26t-19 -65v-194h-127zM231 0v158h136v-158h-136z" />
    <glyph glyph-name="at" unicode="@" horiz-adv-x="1638" 
d="M485 604q0 -95 55 -153t146 -58q98 0 184 83t136.5 201.5t50.5 211.5q0 90 -50 148.5t-139 58.5q-107 0 -195 -78.5t-138 -194.5t-50 -219zM1118 1024l53 135h111l-209 -592q-26 -77 -26 -116q0 -70 69 -70q61 0 125 46.5t115.5 123t81.5 163.5t30 167q0 121 -49.5 220
t-134.5 169t-196.5 107.5t-231.5 37.5q-143 0 -267 -52.5t-219.5 -148t-147.5 -218.5t-52 -257q0 -176 93.5 -328.5t253.5 -242.5t343 -90q105 0 212.5 34.5t199.5 98.5t155 149h109q-65 -115 -171 -198.5t-238 -128.5t-267 -45q-219 0 -401 102.5t-286.5 279t-104.5 384.5
q0 152 61.5 289t171.5 242t251.5 162.5t299.5 57.5q151 0 282 -47t229.5 -133t153 -201t54.5 -250q0 -150 -73 -285.5t-184 -217.5t-214 -82q-68 0 -110.5 36.5t-45.5 106.5h-4q-139 -143 -289 -143q-83 0 -145.5 42t-96.5 116t-34 165q0 136 64.5 274t179 226t251.5 88
q176 0 248 -176z" />
    <glyph glyph-name="A" unicode="A" horiz-adv-x="680" 
d="M514 0l-55 414h-238l-55 -414h-135l217 1493h184l217 -1493h-135zM444 530l-102 861h-4l-102 -861h208z" />
    <glyph glyph-name="B" unicode="B" horiz-adv-x="682" 
d="M240 834h90q51 0 75.5 22t24.5 86v334q0 62 -27.5 82t-87.5 20h-75v-544zM104 0v1493h252q108 0 158.5 -33.5t50.5 -138.5v-377q0 -87 -33.5 -123t-113.5 -39v-4q75 -3 114 -34t39 -105v-467q0 -103 -51 -137.5t-164 -34.5h-252zM240 117h82q36 0 61.5 7.5t39 29.5
t13.5 63v410q0 90 -106 90h-90v-600z" />
    <glyph glyph-name="C" unicode="C" 
d="M391 1102v192q0 97 -76 97q-75 0 -75 -97v-1095q0 -95 75 -95q76 0 76 95v209h135v-213q0 -98 -53 -152.5t-158 -54.5q-104 0 -157.5 55.5t-53.5 151.5v1103q0 96 53.5 151.5t157.5 55.5q105 0 158 -54.5t53 -152.5v-196h-135z" />
    <glyph glyph-name="D" unicode="D" horiz-adv-x="682" 
d="M111 0v1493h231q130 0 179.5 -60t49.5 -182v-1009q0 -121 -49.5 -181.5t-179.5 -60.5h-231zM246 117h71q68 0 93.5 25t25.5 89v1031q0 66 -25.5 91t-93.5 25h-71v-1261z" />
    <glyph glyph-name="E" unicode="E" horiz-adv-x="530" 
d="M104 0v1493h359v-115h-223v-544h213v-117h-213v-600h223v-117h-359z" />
    <glyph glyph-name="F" unicode="F" horiz-adv-x="530" 
d="M104 0v1493h359v-115h-223v-544h213v-117h-213v-717h-136z" />
    <glyph glyph-name="G" unicode="G" horiz-adv-x="682" 
d="M334 616v117h244v-700q-112 -45 -213 -45q-136 0 -195 65t-59 197v1020q0 113 61 174t172 61q112 0 173 -60t61 -175v-168h-136v149q0 140 -98 140q-55 0 -76.5 -36t-21.5 -104v-999q0 -80 31.5 -114t74.5 -34q58 0 90 21v491h-108z" />
    <glyph glyph-name="H" unicode="H" horiz-adv-x="682" 
d="M442 834v659h136v-1493h-136v717h-202v-717h-136v1493h136v-659h202z" />
    <glyph glyph-name="I" unicode="I" horiz-adv-x="344" 
d="M104 0v1493h136v-1493h-136z" />
    <glyph glyph-name="J" unicode="J" 
d="M330 193v1300h135v-1292q0 -108 -56 -160.5t-155 -52.5q-211 0 -211 207v215h135v-215q0 -45 22 -68t54 -23q34 0 55 22.5t21 66.5z" />
    <glyph glyph-name="K" unicode="K" 
d="M244 852l164 641h135l-195 -682l213 -811h-135l-182 750h-4v-750h-136v1493h136v-641h4z" />
    <glyph glyph-name="L" unicode="L" horiz-adv-x="530" 
d="M104 0v1493h136v-1376h223v-117h-359z" />
    <glyph glyph-name="M" unicode="M" horiz-adv-x="909" 
d="M457 158l151 1335h209v-1493h-119v1378h-4l-155 -1378h-168l-156 1378h-4v-1378h-119v1493h209l152 -1335h4z" />
    <glyph glyph-name="N" unicode="N" horiz-adv-x="682" 
d="M465 215v1278h119v-1493h-193l-170 1327h-4v-1327h-119v1493h197l166 -1278h4z" />
    <glyph glyph-name="O" unicode="O" horiz-adv-x="684" 
d="M104 240v1013q0 120 55 186t183 66q130 0 184 -66t54 -186v-1013q0 -78 -22 -133.5t-74.5 -87t-141.5 -31.5t-141.5 31.5t-74.5 87t-22 133.5zM240 1249v-1005q0 -69 21.5 -104.5t80.5 -35.5q60 0 81 35.5t21 104.5v1005q0 70 -20.5 106t-81.5 36q-59 0 -80.5 -36
t-21.5 -106z" />
    <glyph glyph-name="P" unicode="P" 
d="M104 0v1493h215q90 0 137.5 -21t68 -71t20.5 -135v-367q0 -86 -20.5 -135t-69.5 -70.5t-136 -21.5h-79v-672h-136zM240 788h65q52 0 78.5 20.5t26.5 72.5v403q0 55 -26.5 74.5t-78.5 19.5h-65v-590z" />
    <glyph glyph-name="Q" unicode="Q" horiz-adv-x="684" 
d="M541 104l77 13h41v-117h-231q-9 -4 -39 -8q-28 -4 -49 -4q-88 0 -140 31t-74 87t-22 134v1013q0 120 54 186t182 66q126 0 179.5 -66t53.5 -186v-1013q0 -93 -32 -136zM438 244v1005q0 70 -20 106t-78 36q-59 0 -79.5 -36t-20.5 -106v-1005q0 -69 21 -104.5t79 -35.5
q57 0 77.5 35.5t20.5 104.5z" />
    <glyph glyph-name="R" unicode="R" horiz-adv-x="682" 
d="M240 834h90q51 0 75.5 22t24.5 86v334q0 62 -27.5 82t-87.5 20h-75v-544zM436 0v627q0 90 -106 90h-90v-717h-136v1493h252q108 0 158.5 -33.5t50.5 -138.5v-377q0 -85 -33.5 -121t-113.5 -41v-4q77 -5 115 -35t38 -104v-639h-135z" />
    <glyph glyph-name="S" unicode="S" 
d="M365 1106v182q0 103 -78 103q-44 0 -61 -27t-17 -76v-158q0 -80 31 -133l215 -372q49 -85 49 -183v-235q0 -70 -25.5 -119t-75.5 -74.5t-116 -25.5q-112 0 -166.5 53t-54.5 166v205h135v-197q0 -111 86 -111q82 0 82 111v209q0 69 -39 143l-199 348q-32 59 -44.5 98
t-12.5 93v180q0 219 213 219q112 0 162.5 -51.5t50.5 -157.5v-190h-135z" />
    <glyph glyph-name="T" unicode="T" horiz-adv-x="532" 
d="M199 0v1378h-152v115h438v-115h-151v-1378h-135z" />
    <glyph glyph-name="U" unicode="U" horiz-adv-x="684" 
d="M444 244v1249h136v-1292q0 -113 -69 -163t-171 -50q-98 0 -167 50t-69 163v1292h136v-1249q0 -51 11 -82.5t34 -44.5t57 -13q55 0 78.5 31t23.5 109z" />
    <glyph glyph-name="V" unicode="V" 
d="M287 137l133 1356h135l-172 -1493h-197l-172 1493h136l133 -1356h4z" />
    <glyph glyph-name="W" unicode="W" horiz-adv-x="909" 
d="M655 158l103 1335h127l-150 -1493h-176l-102 1327h-4l-103 -1327h-176l-149 1493h127l110 -1335h4l105 1335h168l112 -1335h4z" />
    <glyph glyph-name="X" unicode="X" 
d="M287 887l116 606h136l-174 -741l188 -752h-135l-131 629h-4l-131 -629h-136l193 752l-178 741h135l117 -606h4z" />
    <glyph glyph-name="Y" unicode="Y" 
d="M287 815l129 678h135l-199 -844v-649h-135v649l-199 844h136l129 -678h4z" />
    <glyph glyph-name="Z" unicode="Z" horiz-adv-x="530" 
d="M49 141l305 1237h-286v115h413v-115l-305 -1261h303v-117h-430v141z" />
    <glyph glyph-name="bracketleft" unicode="[" horiz-adv-x="342" 
d="M98 -223v1741h236v-91h-125v-1560h125v-90h-236z" />
    <glyph glyph-name="backslash" unicode="\" 
d="M428 -12l-397 1517h110l398 -1517h-111z" />
    <glyph glyph-name="bracketright" unicode="]" horiz-adv-x="342" 
d="M133 -133v1560h-125v91h236v-1741h-236v90h125z" />
    <glyph glyph-name="asciicircum" unicode="^" horiz-adv-x="1229" 
d="M1022 557l-408 813l-407 -813h-119l471 936h111l471 -936h-119z" />
    <glyph glyph-name="underscore" unicode="_" horiz-adv-x="1024" 
d="M1024 -258h-1024v102h1024v-102z" />
    <glyph glyph-name="grave" unicode="`" horiz-adv-x="303" 
d="M0 1493h143l90 -223h-102z" />
    <glyph glyph-name="a" unicode="a" 
d="M369 207v387q-62 0 -115 -29t-53 -94v-256q0 -65 16 -95t64 -30q42 0 65 31t23 86zM369 696v246q0 94 -74 94q-49 0 -65.5 -27t-16.5 -83v-105h-127v133q0 55 28 97.5t77.5 66t107.5 23.5q197 0 197 -197v-944h-119v59h-4q-29 -36 -62 -53.5t-86 -17.5q-73 0 -112 49
t-39 137v305q0 217 295 217z" />
    <glyph glyph-name="b" unicode="b" 
d="M74 0v1493h127v-434h4q24 43 61 61q40 21 84 21q66 0 106 -49.5t40 -126.5v-758q0 -119 -46.5 -169t-117.5 -50q-50 0 -77.5 20t-57.5 62h-4v-70h-119zM369 211v682q0 131 -76 131q-40 0 -66 -35t-26 -90v-684q0 -63 26.5 -94t67.5 -31q74 0 74 121z" />
    <glyph glyph-name="c" unicode="c" horiz-adv-x="530" 
d="M330 770v174q0 51 -13.5 71.5t-46.5 20.5q-69 0 -69 -92v-768q0 -29 6 -48t19.5 -28.5t37.5 -9.5q66 0 66 86v182h127v-180q0 -92 -50 -141t-141 -49q-82 0 -137 43t-55 127v764q0 219 211 219q84 0 128 -46t44 -137v-188h-127z" />
    <glyph glyph-name="d" unicode="d" 
d="M377 0v70h-4q-30 -42 -57 -62t-78 -20q-71 0 -117.5 51t-46.5 168v758q0 76 40.5 126t104.5 50q99 0 146 -82h4v434h127v-1493h-119zM369 215v684q0 55 -25.5 90t-67.5 35q-75 0 -75 -131v-682q0 -121 73 -121q42 0 68.5 31t26.5 94z" />
    <glyph glyph-name="e" unicode="e" 
d="M369 647v275q0 114 -84 114t-84 -114v-275h168zM369 205v160h127v-160q0 -217 -211 -217t-211 217v717q0 219 211 219t211 -219v-390h-295v-327q0 -115 84 -115t84 115z" />
    <glyph glyph-name="f" unicode="f" horiz-adv-x="342" 
d="M94 1126v207q0 86 35 129t125 43h57v-102h-26q-64 0 -64 -86v-191h90v-102h-90v-1024h-127v1024h-63v102h63z" />
    <glyph glyph-name="g" unicode="g" 
d="M377 1053v73h119v-1120q0 -229 -222 -229q-75 0 -134.5 46t-59.5 134v41h127v-33q0 -98 80 -98q38 0 60 28.5t22 71.5v154h-4q-54 -70 -134 -70q-66 0 -111.5 48t-45.5 147v717q0 77 42.5 127.5t116.5 50.5q45 0 82.5 -25.5t57.5 -62.5h4zM369 291v643q0 46 -28 68
t-69 22q-71 0 -71 -113v-655q0 -33 19.5 -60.5t58.5 -27.5q90 0 90 123z" />
    <glyph glyph-name="h" unicode="h" 
d="M74 0v1493h127v-442h4q18 36 58 63t85 27q73 0 110.5 -48.5t37.5 -121.5v-971h-127v920q0 104 -80 104q-42 0 -65 -31.5t-23 -72.5v-920h-127z" />
    <glyph glyph-name="i" unicode="i" horiz-adv-x="303" 
d="M88 0v1126h127v-1126h-127zM84 1335v158h135v-158h-135z" />
    <glyph glyph-name="j" unicode="j" horiz-adv-x="303" 
d="M84 -39v1165h127v-1206q0 -75 -45 -109t-100 -34q-41 0 -64 10v96q20 -4 31 -4q51 0 51 82zM80 1335v158h135v-158h-135z" />
    <glyph glyph-name="k" unicode="k" 
d="M74 0v1493h127v-821h4l184 454h135l-211 -477l228 -649h-135l-201 606h-4v-606h-127z" />
    <glyph glyph-name="l" unicode="l" horiz-adv-x="303" 
d="M88 0v1493h127v-1493h-127z" />
    <glyph glyph-name="m" unicode="m" horiz-adv-x="831" 
d="M80 0v1126h119v-75h4q31 45 65 67.5t82 22.5q35 0 67.5 -19t51.5 -53q59 72 131 72q76 0 114 -48.5t38 -121.5v-971h-127v926q0 98 -64 98q-37 0 -59.5 -29.5t-22.5 -74.5v-920h-127v926q0 98 -63 98q-37 0 -59.5 -29.5t-22.5 -74.5v-920h-127z" />
    <glyph glyph-name="n" unicode="n" 
d="M74 0v1126h119v-75h4q21 37 61.5 63.5t85.5 26.5q76 0 114 -48.5t38 -121.5v-971h-127v920q0 104 -80 104q-42 0 -65 -31.5t-23 -72.5v-920h-127z" />
    <glyph glyph-name="o" unicode="o" 
d="M369 205v717q0 114 -84 114t-84 -114v-717q0 -115 84 -115t84 115zM74 205v717q0 219 211 219t211 -219v-717q0 -217 -211 -217t-211 217z" />
    <glyph glyph-name="p" unicode="p" 
d="M74 -223v1349h119v-69h4q33 84 135 84q70 0 117 -51.5t47 -169.5v-756q0 -78 -40 -127t-106 -49q-104 0 -145 82h-4v-293h-127zM369 233v682q0 121 -74 121q-94 0 -94 -125v-684q0 -53 26.5 -88t65.5 -35q76 0 76 129z" />
    <glyph glyph-name="q" unicode="q" 
d="M369 -223v293h-4q-43 -82 -146 -82q-65 0 -105 49.5t-40 126.5v756q0 116 47 168.5t117 52.5q100 0 135 -84h4v69h119v-1349h-127zM369 227v684q0 125 -95 125q-73 0 -73 -121v-682q0 -129 75 -129q41 0 67 35t26 88z" />
    <glyph glyph-name="r" unicode="r" horiz-adv-x="418" 
d="M74 0v1126h119v-77h4q32 47 71 69.5t99 22.5v-129q-91 0 -128.5 -38t-37.5 -128v-846h-127z" />
    <glyph glyph-name="s" unicode="s" horiz-adv-x="530" 
d="M334 793v168q0 75 -66 75q-65 0 -65 -80v-127q0 -42 47 -112l160 -225q45 -64 45 -123v-191q0 -92 -50 -141t-141 -49q-84 0 -136 43.5t-52 132.5v196h127v-174q0 -45 12.5 -70.5t50.5 -25.5q62 0 62 98v138q0 59 -47 123l-146 200q-32 44 -45.5 76.5t-13.5 75.5v145
q0 90 56 142.5t142 52.5q94 0 136.5 -50t42.5 -112v-186h-119z" />
    <glyph glyph-name="t" unicode="t" horiz-adv-x="342" 
d="M94 1126v152l127 49v-201h90v-102h-90v-856q0 -64 64 -64h26v-104h-61q-156 0 -156 139v885h-63v102h63z" />
    <glyph glyph-name="u" unicode="u" 
d="M496 1126v-1126h-119v76h-4q-22 -36 -61.5 -62t-86.5 -26q-74 0 -112.5 48.5t-38.5 121.5v968h127v-919q0 -103 80 -103q41 0 64.5 32t23.5 71v919h127z" />
    <glyph glyph-name="v" unicode="v" horiz-adv-x="528" 
d="M170 0l-133 1126h119l106 -952h4l107 952h119l-134 -1126h-188z" />
    <glyph glyph-name="w" unicode="w" horiz-adv-x="831" 
d="M156 0l-119 1126h113l94 -952h4l82 952h172l82 -952h4l94 952h113l-119 -1126h-174l-84 979h-4l-84 -979h-174z" />
    <glyph glyph-name="x" unicode="x" horiz-adv-x="528" 
d="M37 0l168 582l-148 544h123l82 -333h4l82 333h123l-147 -544l168 -582h-123l-103 397h-4l-102 -397h-123z" />
    <glyph glyph-name="y" unicode="y" horiz-adv-x="530" 
d="M494 1126l-213 -1349h-127l45 223l-162 1126h127l90 -757h4l109 757h127z" />
    <glyph glyph-name="z" unicode="z" horiz-adv-x="418" 
d="M37 150l213 874h-201v102h328v-110l-221 -912h225v-104h-344v150z" />
    <glyph glyph-name="braceleft" unicode="{" horiz-adv-x="342" 
d="M31 606v82q47 0 63.5 34t16.5 99v545q0 152 122 152h78v-82h-37q-53 0 -53 -68v-547q0 -135 -80 -172v-4q36 -16 58 -57t22 -115v-545q0 -69 53 -69h37v-82h-78q-122 0 -122 153v543q0 66 -16.5 99.5t-63.5 33.5z" />
    <glyph glyph-name="bar" unicode="|" horiz-adv-x="455" 
d="M176 -12v1517h103v-1517h-103z" />
    <glyph glyph-name="braceright" unicode="}" horiz-adv-x="342" 
d="M311 688v-82q-45 0 -62.5 -33.5t-17.5 -99.5v-543q0 -70 -28.5 -111.5t-93.5 -41.5h-78v82h37q53 0 53 69v545q0 74 22.5 115t57.5 57v4q-80 37 -80 172v547q0 68 -53 68h-37v82h78q65 0 93.5 -41t28.5 -111v-545q0 -65 17.5 -99t62.5 -34z" />
    <glyph glyph-name="asciitilde" unicode="~" horiz-adv-x="1229" 
d="M215 393l-74 74q40 84 105 131t151 47q84 0 236 -70q25 -10 43.5 -19t57 -25t60 -21.5t40.5 -5.5q85 0 180 149l73 -73q-37 -82 -103.5 -130.5t-152.5 -48.5q-83 0 -235 70q-86 40 -126.5 56t-74.5 16q-46 0 -89 -36.5t-91 -113.5z" />
    <glyph glyph-name="u009D" horiz-adv-x="0" 
d="M-727 487q23 0 36 -13t13 -36q0 -28 -48 -49.5t-71.5 -41.5t-23.5 -81q0 -65 49 -100t123 -35q2 1 4 1.5t4 0.5q70 0 138.5 26t113.5 75t45 114q0 50 -30 107t-88 143.5t-88 150.5t-30 130q0 202 197 376q89 81 204 138t218 57q70 0 117 -37t47 -106q0 -22 -6 -43
q88 80 202 136t219 56q71 0 117.5 -37t46.5 -106q0 -84 -61.5 -166t-145.5 -148q-65 -51 -141.5 -96t-126.5 -45q-19 0 -38 14t-19 33l2 4q0 40 70 66q110 36 206 110q73 59 109.5 113t36.5 92q0 31 -19 48.5t-53 17.5q-65 0 -150 -40t-147 -89q-76 -58 -134 -146.5
t-58 -173.5q0 -70 30.5 -134t90.5 -155.5t91 -151t31 -116.5q0 -92 -64 -164.5t-162 -111.5t-187 -39q-191 0 -262 110q-61 -54 -149.5 -85t-168.5 -31q-102 0 -170.5 33t-100.5 87t-32 115q2 89 61 156t152 67zM-256 457q61 37 109 37q21 0 35 -14t14 -36
q0 -19 -12.5 -29.5t-40 -21t-46.5 -22t-32 -36t-13 -77.5q4 -57 53.5 -89t118.5 -32q2 1 4 1.5t5 0.5q70 0 138.5 26t113.5 75t45 114q0 50 -30 107t-88 143.5t-88 150.5t-30 130q0 69 23 135q-5 -4 -14 -14t-13 -13q-65 -51 -142.5 -96t-125.5 -45q-20 0 -39 14t-19 33l2 4
q0 40 70 66q108 35 207 110q72 60 108.5 113.5t36.5 91.5q0 31 -19 48.5t-52 17.5q-64 0 -148.5 -39.5t-148.5 -89.5q-78 -59 -135.5 -147t-57.5 -173q0 -55 20.5 -108t45 -94t76.5 -123t69 -119zM360 86q0 60 68 212t151 281.5t115 129.5q16 0 27.5 -10.5t11.5 -28.5
q0 -15 -55.5 -101t-110.5 -193t-98 -251q-14 -50 -24 -69t-39 -19q-20 0 -33 15t-13 34zM893 1104q24 0 36.5 -13.5t12.5 -35.5q0 -27 -21.5 -63.5t-51.5 -62.5t-56 -26q-47 0 -47 51q0 26 21 62t50.5 62t55.5 26z" />
    <glyph glyph-name="nonbreakingspace" unicode="&#xa0;" horiz-adv-x="1536" 
 />
    <glyph glyph-name="exclamdown" unicode="&#xa1;" horiz-adv-x="528" 
d="M188 -211l17 1131h119l16 -1131h-152zM197 1124v158h135v-158h-135z" />
    <glyph glyph-name="cent" unicode="&#xa2;" horiz-adv-x="565" 
d="M236 -113v168q-63 10 -103 51q-43 48 -43 113v766q0 180 146 209v170h102v-164q65 -9 102 -53q35 -50 35 -127v-189h-127v175q0 46 -18.5 69t-46.5 23q-29 0 -47.5 -23t-18.5 -69v-768q0 -43 16 -63.5t50 -20.5q65 0 65 84v182h127v-180q0 -77 -35 -124t-102 -61v-168
h-102z" />
    <glyph glyph-name="sterling" unicode="&#xa3;" horiz-adv-x="565" 
d="M449 1190v137q0 25 -9.5 41.5t-27.5 25.5t-35 9q-72 0 -72 -94v-447h197v-114h-197v-631h254v-117h-502v117h113v631h-117v114h117v410q0 69 22 122.5t67.5 82t113.5 28.5q102 0 152 -50t50 -142v-123h-126z" />
    <glyph glyph-name="currency" unicode="&#xa4;" horiz-adv-x="565" 
d="M424 748q0 38 -19 70.5t-51.5 51.5t-70.5 19q-58 0 -100 -41t-42 -100q0 -60 42 -102t100 -42q59 0 100 42t41 102zM424 948l55 56l58 -58l-58 -59q47 -59 47 -139q0 -83 -47 -142l58 -57l-58 -60l-55 58q-64 -47 -141 -47q-78 0 -142 47l-55 -58l-57 60l57 57
q-47 59 -47 142q0 80 47 139l-57 59l57 58l55 -56q62 45 142 45q79 0 141 -45z" />
    <glyph glyph-name="yen" unicode="&#xa5;" horiz-adv-x="565" 
d="M215 0v436h-184v105h184v108l-10 43h-174v105h149l-164 696h136l129 -678h4l129 678h135l-164 -696h150v-105h-175l-10 -43v-108h185v-105h-185v-436h-135z" />
    <glyph glyph-name="brokenbar" unicode="&#xa6;" horiz-adv-x="455" 
d="M176 -12v569h103v-569h-103zM176 938v567h103v-567h-103z" />
    <glyph glyph-name="section" unicode="&#xa7;" 
d="M369 1192v98q0 113 -78 113q-82 0 -82 -100q0 -46 8.5 -73.5t32.5 -55.5l203 -236q43 -54 43 -117v-135q0 -44 -22 -82.5t-97 -105.5q73 -69 99 -110.5t26 -96.5v-101q0 -202 -217 -202q-108 0 -162.5 51.5t-54.5 144.5v146h127v-109q0 -49 22.5 -90t65.5 -41q38 0 61 30
t23 77v69q0 58 -95 150l-116 114q-31 31 -55.5 75.5t-24.5 84.5v115q0 55 33.5 110t99.5 113q-59 57 -93 111t-34 112v82q0 79 53.5 125.5t153.5 46.5q207 0 207 -192v-121h-127zM369 725v66q0 40 -17.5 75t-77.5 95q-40 -48 -55.5 -81t-15.5 -77v-68q0 -42 23.5 -82
t78.5 -88q64 77 64 160z" />
    <glyph glyph-name="dieresis" unicode="&#xa8;" horiz-adv-x="303" 
d="M-14 1298v158h127v-158h-127zM190 1298v158h127v-158h-127z" />
    <glyph glyph-name="copyright" unicode="&#xa9;" horiz-adv-x="1638" 
d="M1112 592h111q-23 -97 -77 -171t-132 -115.5t-170 -41.5q-136 0 -240 63t-160.5 174.5t-56.5 248.5q0 102 30.5 189.5t89 152t144 100t187.5 35.5q149 0 257 -85t128 -233h-111q-12 58 -49.5 107.5t-94 77.5t-128.5 28q-107 0 -184.5 -49t-117.5 -133t-40 -188
q0 -101 42.5 -189t120.5 -141t183 -53q69 0 126.5 29t94.5 80t47 114zM68 748q0 155 58 293t161 243t241 163t291 58t291 -58t241.5 -162.5t161.5 -243t58 -293.5t-57.5 -293t-162.5 -244t-241 -164.5t-291 -58.5t-291 58.5t-240.5 165t-162 244t-57.5 292.5zM1468 748
q0 177 -86.5 328t-235.5 239t-327 88q-177 0 -326 -87.5t-236 -238.5t-87 -329t87 -330t236 -240t326 -88q133 0 252.5 51t208.5 141.5t138.5 210.5t49.5 255z" />
    <glyph glyph-name="ordfeminine" unicode="&#xaa;" horiz-adv-x="369" 
d="M227 950v226q-43 -5 -64.5 -22t-21.5 -58v-142q0 -75 39 -75q47 0 47 71zM227 1241v141q0 58 -37 58q-43 0 -43 -66v-61h-94v82q0 49 40.5 79.5t99.5 30.5q65 0 97 -27t32 -89v-568h-76v35h-4q-19 -21 -40.5 -32t-56.5 -11q-46 0 -72 30t-26 81v161q0 87 39.5 118.5
t140.5 37.5z" />
    <glyph glyph-name="guillemotleft" unicode="&#xab;" 
d="M424 182l-125 443l117 434h110l-100 -434l100 -443h-102zM168 182l-125 443l117 434h110l-100 -434l100 -443h-102z" />
    <glyph glyph-name="logicalnot" unicode="&#xac;" horiz-adv-x="1229" 
d="M1030 223v449h-934v104h1037v-553h-103z" />
    <glyph glyph-name="registered" unicode="&#xae;" horiz-adv-x="1638" 
d="M68 748q0 155 58 293t161 243t241 163t291 58t291 -58t241.5 -162.5t161.5 -243t58 -293.5t-57.5 -293t-162.5 -244t-241 -164.5t-291 -58.5t-291 58.5t-240.5 165t-162 244t-57.5 292.5zM1468 748q0 177 -86.5 328t-235.5 239t-327 88q-177 0 -326 -87.5t-236 -238.5
t-87 -329t87 -330t236 -240t326 -88q133 0 252.5 51t208.5 141.5t138.5 210.5t49.5 255zM1085 272l-254 402h-190v-402h-102v904h342q149 0 219.5 -64t70.5 -188q0 -76 -29.5 -128.5t-79 -81.5t-112.5 -40l262 -402h-127zM641 766h211q105 0 161 36t56 124q0 157 -213 157
h-215v-317z" />
    <glyph glyph-name="macron" unicode="&#xaf;" horiz-adv-x="303" 
d="M-31 1333v92h365v-92h-365z" />
    <glyph glyph-name="degree" unicode="&#xb0;" horiz-adv-x="819" 
d="M168 1262q0 101 71 172t171 71q101 0 171 -71t70 -172q0 -102 -70 -173t-171 -71q-100 0 -171 71t-71 173zM258 1262q0 -63 44.5 -108.5t107.5 -45.5t107 46t44 108q0 43 -19.5 77.5t-54.5 55t-77 20.5t-76.5 -20.5t-55 -54.5t-20.5 -78z" />
    <glyph glyph-name="plusminus" unicode="&#xb1;" horiz-adv-x="1229" 
d="M563 668v379h103v-379h467v-103h-467v-379h-103v379h-467v103h467zM96 0v104h1037v-104h-1037z" />
    <glyph glyph-name="twosuperior" unicode="&#xb2;" horiz-adv-x="371" 
d="M43 602v82l158 442q30 86 30 172v60q0 74 -41 74q-40 0 -40 -74v-90h-95v104q0 67 33.5 100t106.5 33q65 0 98 -34.5t33 -96.5v-88q0 -42 -7 -79.5t-32 -110.5l-148 -412h189v-82h-285z" />
    <glyph glyph-name="threesuperior" unicode="&#xb3;" horiz-adv-x="371" 
d="M133 1026v82h29q67 0 67 66v184q0 74 -43 74q-45 0 -45 -74v-94h-94v106q0 135 139 135q138 0 138 -135v-231q0 -40 -16 -55t-48 -17v-4q33 0 48.5 -14t15.5 -54v-264q0 -137 -138 -137q-139 0 -139 137v121h94v-109q0 -75 45 -75q43 0 43 75v220q0 63 -67 63h-29z" />
    <glyph glyph-name="acute" unicode="&#xb4;" horiz-adv-x="303" 
d="M160 1493h143l-131 -223h-102z" />
    <glyph glyph-name="mu" unicode="&#xb5;" 
d="M496 1126v-1126h-119v76h-4q-16 -34 -48 -61t-65 -27q-42 0 -55 41h-4v-252h-127v1349h127v-919q0 -103 80 -103q41 0 64.5 32t23.5 71v919h127z" />
    <glyph glyph-name="paragraph" unicode="&#xb6;" horiz-adv-x="819" 
d="M547 0v1391h-115v-1391h-110v764q-132 19 -192 119t-60 245q0 168 77.5 266.5t241.5 98.5h268v-1493h-110z" />
    <glyph glyph-name="cedilla" unicode="&#xb8;" horiz-adv-x="303" 
d="M121 0h41l-17 -66q22 5 54 5q36 0 60 -23t24 -57q0 -33 -34.5 -64t-117.5 -31q-33 0 -74 9l11 47q21 -6 49 -6q24 0 47.5 10.5t23.5 32.5q0 19 -15 29t-28 10q-31 0 -49 -7z" />
    <glyph glyph-name="onesuperior" unicode="&#xb9;" horiz-adv-x="371" 
d="M139 602v793h-4q-5 -10 -67 -56v93q37 17 98 65h76v-895h-103z" />
    <glyph glyph-name="ordmasculine" unicode="&#xba;" horiz-adv-x="369" 
d="M137 1372v-424q0 -69 47 -69t47 69v424q0 68 -47 68t-47 -68zM326 1376v-432q0 -131 -142 -131q-141 0 -141 131v432q0 129 141 129q142 0 142 -129z" />
    <glyph glyph-name="guillemotright" unicode="&#xbb;" 
d="M399 616l-100 443h102l125 -443l-116 -434h-111zM143 616l-100 443h102l125 -443l-116 -434h-111z" />
    <glyph glyph-name="onequarter" unicode="&#xbc;" horiz-adv-x="854" 
d="M647 301v479h-4l-94 -479h98zM123 0l397 1493h103l-398 -1493h-102zM647 0v227h-168v101l135 567h127v-594h66v-74h-66v-227h-94zM119 602v793h-4q-8 -13 -68 -56v93q41 19 98 65h76v-895h-102z" />
    <glyph glyph-name="onehalf" unicode="&#xbd;" horiz-adv-x="854" 
d="M123 0l397 1493h103l-398 -1493h-102zM119 602v793h-4q-8 -13 -68 -56v93q41 19 98 65h76v-895h-102zM522 0v82l158 444q31 83 31 170v60q0 73 -41 73t-41 -73v-90h-94v104q0 67 33 100t106 33q65 0 98 -34.5t33 -96.5v-88q0 -47 -8.5 -88t-30.5 -102l-148 -412h189v-82
h-285z" />
    <glyph glyph-name="threequarters" unicode="&#xbe;" horiz-adv-x="854" 
d="M647 301v479h-4l-94 -479h98zM182 0l398 1493h102l-397 -1493h-103zM647 0v227h-168v101l135 567h127v-594h66v-74h-66v-227h-94zM133 1026v82h29q67 0 67 66v184q0 74 -43 74q-45 0 -45 -74v-94h-94v106q0 135 139 135q138 0 138 -135v-231q0 -40 -16 -55t-48 -17v-4
q33 0 48.5 -14t15.5 -54v-264q0 -137 -138 -137q-139 0 -139 137v121h94v-109q0 -75 45 -75q43 0 43 75v220q0 63 -67 63h-29z" />
    <glyph glyph-name="questiondown" unicode="&#xbf;" 
d="M356 -18v194h127v-190q0 -61 -20 -107.5t-65.5 -74t-114.5 -27.5q-197 0 -197 174v213q0 93 31 180l69 193q25 63 25 168v215h119v-220q0 -137 -33 -227l-53 -141q-23 -58 -23 -133v-232q0 -33 18 -54.5t48 -21.5q31 0 50 26t19 65zM203 1124v158h135v-158h-135z" />
    <glyph glyph-name="Agrave" unicode="&#xc0;" horiz-adv-x="680" 
d="M514 0l-55 414h-238l-55 -414h-135l217 1493h184l217 -1493h-135zM444 530l-102 861h-4l-102 -861h208zM201 1780h143l90 -224h-102z" />
    <glyph glyph-name="Aacute" unicode="&#xc1;" horiz-adv-x="680" 
d="M514 0l-55 414h-238l-55 -414h-135l217 1493h184l217 -1493h-135zM444 530l-102 861h-4l-102 -861h208zM360 1780h144l-131 -224h-103z" />
    <glyph glyph-name="Acircumflex" unicode="&#xc2;" horiz-adv-x="680" 
d="M514 0l-55 414h-238l-55 -414h-135l217 1493h184l217 -1493h-135zM444 530l-102 861h-4l-102 -861h208zM412 1556l-60 150l-59 -150h-119l90 224h176l90 -224h-118z" />
    <glyph glyph-name="Atilde" unicode="&#xc3;" horiz-adv-x="680" 
d="M514 0l-55 414h-238l-55 -414h-135l217 1493h184l217 -1493h-135zM444 530l-102 861h-4l-102 -861h208zM238 1593h-70q0 59 29 99.5t92 40.5q33 0 74 -18.5t53 -18.5q17 0 33.5 13t17.5 34h70q0 -58 -29 -98.5t-92 -40.5q-29 0 -71 19t-56 19q-19 0 -34.5 -14t-16.5 -35z
" />
    <glyph glyph-name="Adieresis" unicode="&#xc4;" horiz-adv-x="680" 
d="M514 0l-55 414h-238l-55 -414h-135l217 1493h184l217 -1493h-135zM444 530l-102 861h-4l-102 -861h208zM186 1585v158h127v-158h-127zM391 1585v158h127v-158h-127z" />
    <glyph glyph-name="Aring" unicode="&#xc5;" horiz-adv-x="680" 
d="M514 0l-55 414h-238l-55 -414h-135l217 1493h184l217 -1493h-135zM444 530l-102 861h-4l-102 -861h208zM215 1671q0 58 40.5 98.5t96.5 40.5q56 -1 96.5 -41.5t40.5 -97.5q0 -59 -40 -99t-97 -40t-97 40t-40 99zM420 1671q0 27 -19.5 48.5t-48.5 21.5q-28 -2 -47.5 -22
t-19.5 -48q0 -29 20 -49t47 -20q28 0 48 20t20 49z" />
    <glyph glyph-name="AE" unicode="&#xc6;" horiz-adv-x="834" 
d="M485 0l-28 414h-230l-69 -414h-127l256 1493h499v-115h-260l39 -544h211v-117h-205l43 -600h172v-117h-301zM451 530l-56 861h-4l-145 -861h205z" />
    <glyph glyph-name="Ccedilla" unicode="&#xc7;" 
d="M526 408v-213q0 -98 -53 -152.5t-158 -54.5l-14 -54q20 5 53 5q36 0 60 -23t24 -57t-34.5 -64.5t-116.5 -30.5q-33 0 -74 9l10 47q22 -6 49 -6q25 0 48.5 10.5t23.5 32.5q0 18 -15 28.5t-28 10.5q-32 0 -49 -7l22 103q-83 9 -126.5 62t-43.5 141v1103q0 96 53.5 151.5
t157.5 55.5q105 0 158 -54.5t53 -152.5v-196h-135v192q0 97 -76 97q-75 0 -75 -97v-1095q0 -95 75 -95q76 0 76 95v209h135z" />
    <glyph glyph-name="Egrave" unicode="&#xc8;" horiz-adv-x="530" 
d="M104 0v1493h359v-115h-223v-544h213v-117h-213v-600h223v-117h-359zM139 1780h144l90 -224h-103z" />
    <glyph glyph-name="Eacute" unicode="&#xc9;" horiz-adv-x="530" 
d="M104 0v1493h359v-115h-223v-544h213v-117h-213v-600h223v-117h-359zM299 1780h143l-131 -224h-102z" />
    <glyph glyph-name="Ecircumflex" unicode="&#xca;" horiz-adv-x="530" 
d="M104 0v1493h359v-115h-223v-544h213v-117h-213v-600h223v-117h-359zM350 1556l-59 150l-60 -150h-118l90 224h176l90 -224h-119z" />
    <glyph glyph-name="Edieresis" unicode="&#xcb;" horiz-adv-x="530" 
d="M104 0v1493h359v-115h-223v-544h213v-117h-213v-600h223v-117h-359zM125 1585v158h127v-158h-127zM330 1585v158h127v-158h-127z" />
    <glyph glyph-name="Igrave" unicode="&#xcc;" horiz-adv-x="344" 
d="M104 0v1493h136v-1493h-136zM20 1780h144l90 -224h-102z" />
    <glyph glyph-name="Iacute" unicode="&#xcd;" horiz-adv-x="344" 
d="M104 0v1493h136v-1493h-136zM180 1780h144l-131 -224h-103z" />
    <glyph glyph-name="Icircumflex" unicode="&#xce;" horiz-adv-x="344" 
d="M104 0v1493h136v-1493h-136zM231 1556l-59 150l-59 -150h-119l90 224h176l90 -224h-119z" />
    <glyph glyph-name="Idieresis" unicode="&#xcf;" horiz-adv-x="344" 
d="M104 0v1493h136v-1493h-136zM6 1585v158h127v-158h-127zM211 1585v158h127v-158h-127z" />
    <glyph glyph-name="Eth" unicode="&#xd0;" horiz-adv-x="682" 
d="M117 834v659h231q131 0 180.5 -60t49.5 -182v-1009q0 -121 -49.5 -181.5t-180.5 -60.5h-231v717h-66v117h66zM252 834h82v-117h-82v-600h72q68 0 93 25t25 89v1031q0 66 -25 91t-93 25h-72v-544z" />
    <glyph glyph-name="Ntilde" unicode="&#xd1;" horiz-adv-x="682" 
d="M465 215v1278h119v-1493h-193l-170 1327h-4v-1327h-119v1493h197l166 -1278h4zM227 1593h-69q0 59 28 99.5t93 40.5q33 0 74 -18.5t53 -18.5q17 0 33.5 13t17.5 34h69q0 -58 -28.5 -98.5t-91.5 -40.5q-29 0 -71 19t-56 19q-19 0 -35 -13.5t-17 -35.5z" />
    <glyph glyph-name="Ograve" unicode="&#xd2;" horiz-adv-x="684" 
d="M104 240v1013q0 120 55 186t183 66q130 0 184 -66t54 -186v-1013q0 -78 -22 -133.5t-74.5 -87t-141.5 -31.5t-141.5 31.5t-74.5 87t-22 133.5zM240 1249v-1005q0 -69 21.5 -104.5t80.5 -35.5q60 0 81 35.5t21 104.5v1005q0 70 -20.5 106t-81.5 36q-59 0 -80.5 -36
t-21.5 -106zM190 1780h144l90 -224h-102z" />
    <glyph glyph-name="Oacute" unicode="&#xd3;" horiz-adv-x="684" 
d="M104 240v1013q0 120 55 186t183 66q130 0 184 -66t54 -186v-1013q0 -78 -22 -133.5t-74.5 -87t-141.5 -31.5t-141.5 31.5t-74.5 87t-22 133.5zM240 1249v-1005q0 -69 21.5 -104.5t80.5 -35.5q60 0 81 35.5t21 104.5v1005q0 70 -20.5 106t-81.5 36q-59 0 -80.5 -36
t-21.5 -106zM350 1780h144l-132 -224h-102z" />
    <glyph glyph-name="Ocircumflex" unicode="&#xd4;" horiz-adv-x="684" 
d="M104 240v1013q0 120 55 186t183 66q130 0 184 -66t54 -186v-1013q0 -78 -22 -133.5t-74.5 -87t-141.5 -31.5t-141.5 31.5t-74.5 87t-22 133.5zM240 1249v-1005q0 -69 21.5 -104.5t80.5 -35.5q60 0 81 35.5t21 104.5v1005q0 70 -20.5 106t-81.5 36q-59 0 -80.5 -36
t-21.5 -106zM401 1556l-59 150l-59 -150h-119l90 224h176l90 -224h-119z" />
    <glyph glyph-name="Otilde" unicode="&#xd5;" horiz-adv-x="684" 
d="M104 240v1013q0 120 55 186t183 66q130 0 184 -66t54 -186v-1013q0 -78 -22 -133.5t-74.5 -87t-141.5 -31.5t-141.5 31.5t-74.5 87t-22 133.5zM240 1249v-1005q0 -69 21.5 -104.5t80.5 -35.5q60 0 81 35.5t21 104.5v1005q0 70 -20.5 106t-81.5 36q-59 0 -80.5 -36
t-21.5 -106zM227 1593h-69q0 59 28 99.5t93 40.5q33 0 74 -18.5t53 -18.5q17 0 33.5 13t17.5 34h69q0 -58 -28.5 -98.5t-91.5 -40.5q-29 0 -71 19t-56 19q-19 0 -35 -13.5t-17 -35.5z" />
    <glyph glyph-name="Odieresis" unicode="&#xd6;" horiz-adv-x="684" 
d="M104 240v1013q0 120 55 186t183 66q130 0 184 -66t54 -186v-1013q0 -78 -22 -133.5t-74.5 -87t-141.5 -31.5t-141.5 31.5t-74.5 87t-22 133.5zM240 1249v-1005q0 -69 21.5 -104.5t80.5 -35.5q60 0 81 35.5t21 104.5v1005q0 70 -20.5 106t-81.5 36q-59 0 -80.5 -36
t-21.5 -106zM176 1585v158h127v-158h-127zM381 1585v158h127v-158h-127z" />
    <glyph glyph-name="multiply" unicode="&#xd7;" horiz-adv-x="1229" 
d="M612 596l392 395l73 -76l-391 -391l391 -393l-73 -76l-392 396l-387 -396l-73 76l389 393l-389 391l73 76z" />
    <glyph glyph-name="Oslash" unicode="&#xd8;" horiz-adv-x="684" 
d="M96 -59l39 147q-31 63 -31 152v1013q0 120 55 186t183 66q99 0 154 -39l28 109l64 -21l-39 -151q31 -58 31 -150v-1013q0 -78 -22 -133.5t-74.5 -87t-141.5 -31.5q-101 0 -154 41l-28 -109zM244 485l200 781q-2 62 -24 93.5t-78 31.5q-59 0 -80.5 -36t-21.5 -106v-764h4z
M440 1006l-200 -789q0 -113 102 -113q60 0 81 35.5t21 104.5v762h-4z" />
    <glyph glyph-name="Ugrave" unicode="&#xd9;" horiz-adv-x="684" 
d="M444 244v1249h136v-1292q0 -113 -69 -163t-171 -50q-98 0 -167 50t-69 163v1292h136v-1249q0 -51 11 -82.5t34 -44.5t57 -13q55 0 78.5 31t23.5 109zM190 1780h144l90 -224h-102z" />
    <glyph glyph-name="Uacute" unicode="&#xda;" horiz-adv-x="684" 
d="M444 244v1249h136v-1292q0 -113 -69 -163t-171 -50q-98 0 -167 50t-69 163v1292h136v-1249q0 -51 11 -82.5t34 -44.5t57 -13q55 0 78.5 31t23.5 109zM350 1780h144l-132 -224h-102z" />
    <glyph glyph-name="Ucircumflex" unicode="&#xdb;" horiz-adv-x="684" 
d="M444 244v1249h136v-1292q0 -113 -69 -163t-171 -50q-98 0 -167 50t-69 163v1292h136v-1249q0 -51 11 -82.5t34 -44.5t57 -13q55 0 78.5 31t23.5 109zM401 1556l-59 150l-59 -150h-119l90 224h176l90 -224h-119z" />
    <glyph glyph-name="Udieresis" unicode="&#xdc;" horiz-adv-x="684" 
d="M444 244v1249h136v-1292q0 -113 -69 -163t-171 -50q-98 0 -167 50t-69 163v1292h136v-1249q0 -51 11 -82.5t34 -44.5t57 -13q55 0 78.5 31t23.5 109zM176 1585v158h127v-158h-127zM381 1585v158h127v-158h-127z" />
    <glyph glyph-name="Yacute" unicode="&#xdd;" 
d="M287 815l129 678h135l-199 -844v-649h-135v649l-199 844h136l129 -678h4zM293 1780h143l-131 -224h-102z" />
    <glyph glyph-name="Thorn" unicode="&#xde;" 
d="M104 0v1493h136v-256h79q90 0 137.5 -21t68 -71t20.5 -135v-367q0 -85 -20.5 -135t-68 -71t-137.5 -21h-79v-416h-136zM240 532h65q52 0 78.5 20.5t26.5 72.5v403q0 52 -27 72t-78 20h-65v-588z" />
    <glyph glyph-name="germandbls" unicode="&#xdf;" horiz-adv-x="758" 
d="M74 0v1200q0 100 24.5 168t82.5 102.5t157 34.5q113 0 171 -61.5t58 -163.5v-246q-137 -55 -137 -131q0 -12 4.5 -30.5t11 -30.5t17 -29.5t12.5 -21.5l160 -259q49 -77 49 -180v-172q0 -192 -207 -192q-90 0 -137 48t-47 142v158h127v-158q0 -41 17 -64.5t46 -23.5
q38 0 56 25t18 59v178q0 56 -27 103l-180 301q-27 45 -37 77.5t-10 77.5q0 104 137 179v186q0 64 -25 95.5t-87 31.5q-127 0 -127 -156v-1247h-127z" />
    <glyph glyph-name="agrave" unicode="&#xe0;" 
d="M369 207v387q-62 0 -115 -29t-53 -94v-256q0 -65 16 -95t64 -30q42 0 65 31t23 86zM369 696v246q0 94 -74 94q-49 0 -65.5 -27t-16.5 -83v-105h-127v133q0 55 28 97.5t77.5 66t107.5 23.5q197 0 197 -197v-944h-119v59h-4q-29 -36 -62 -53.5t-86 -17.5q-73 0 -112 49
t-39 137v305q0 217 295 217zM145 1493h144l90 -223h-103z" />
    <glyph glyph-name="aacute" unicode="&#xe1;" 
d="M369 207v387q-62 0 -115 -29t-53 -94v-256q0 -65 16 -95t64 -30q42 0 65 31t23 86zM369 696v246q0 94 -74 94q-49 0 -65.5 -27t-16.5 -83v-105h-127v133q0 55 28 97.5t77.5 66t107.5 23.5q197 0 197 -197v-944h-119v59h-4q-29 -36 -62 -53.5t-86 -17.5q-73 0 -112 49
t-39 137v305q0 217 295 217zM305 1493h144l-132 -223h-102z" />
    <glyph glyph-name="acircumflex" unicode="&#xe2;" 
d="M369 207v387q-62 0 -115 -29t-53 -94v-256q0 -65 16 -95t64 -30q42 0 65 31t23 86zM369 696v246q0 94 -74 94q-49 0 -65.5 -27t-16.5 -83v-105h-127v133q0 55 28 97.5t77.5 66t107.5 23.5q197 0 197 -197v-944h-119v59h-4q-29 -36 -62 -53.5t-86 -17.5q-73 0 -112 49
t-39 137v305q0 217 295 217zM356 1270l-59 149l-59 -149h-119l90 223h176l90 -223h-119z" />
    <glyph glyph-name="atilde" unicode="&#xe3;" 
d="M369 207v387q-62 0 -115 -29t-53 -94v-256q0 -65 16 -95t64 -30q42 0 65 31t23 86zM369 696v246q0 94 -74 94q-49 0 -65.5 -27t-16.5 -83v-105h-127v133q0 55 28 97.5t77.5 66t107.5 23.5q197 0 197 -197v-944h-119v59h-4q-29 -36 -62 -53.5t-86 -17.5q-73 0 -112 49
t-39 137v305q0 217 295 217zM182 1307h-69q0 58 28 98.5t92 40.5q33 0 74 -18.5t53 -18.5q18 0 34.5 13t17.5 34h69q0 -36 -12 -67.5t-38 -51.5t-71 -20q-25 0 -43 7t-44 19.5t-40 12.5q-16 0 -33 -14.5t-18 -34.5z" />
    <glyph glyph-name="adieresis" unicode="&#xe4;" 
d="M369 207v387q-62 0 -115 -29t-53 -94v-256q0 -65 16 -95t64 -30q42 0 65 31t23 86zM369 696v246q0 94 -74 94q-49 0 -65.5 -27t-16.5 -83v-105h-127v133q0 55 28 97.5t77.5 66t107.5 23.5q197 0 197 -197v-944h-119v59h-4q-29 -36 -62 -53.5t-86 -17.5q-73 0 -112 49
t-39 137v305q0 217 295 217zM131 1298v158h127v-158h-127zM336 1298v158h127v-158h-127z" />
    <glyph glyph-name="aring" unicode="&#xe5;" 
d="M369 207v387q-62 0 -115 -29t-53 -94v-256q0 -65 16 -95t64 -30q42 0 65 31t23 86zM369 696v246q0 94 -74 94q-49 0 -65.5 -27t-16.5 -83v-105h-127v133q0 55 28 97.5t77.5 66t107.5 23.5q197 0 197 -197v-944h-119v59h-4q-29 -36 -62 -53.5t-86 -17.5q-73 0 -112 49
t-39 137v305q0 217 295 217zM160 1372q0 58 40.5 98.5t96.5 40.5q56 -1 96.5 -41.5t40.5 -97.5q0 -59 -40 -99t-97 -40t-97 40t-40 99zM365 1372q0 27 -19.5 48.5t-48.5 21.5q-28 -2 -48 -22t-20 -48q0 -29 21 -49t47 -20q28 0 48 20t20 49z" />
    <glyph glyph-name="ae" unicode="&#xe6;" horiz-adv-x="834" 
d="M354 647v307q0 36 -20.5 59t-52.5 23t-53 -23.5t-21 -58.5v-155h-127v151q0 89 49 140t137 51q94 0 156 -82q65 82 160 82q80 0 127 -46t47 -173v-390h-275v-327q0 -61 17.5 -88t56.5 -27q34 0 54 27.5t20 87.5v160h127v-160q0 -117 -57.5 -167t-143.5 -50q-87 0 -133 82
q-24 -34 -44 -50.5t-45 -24t-65 -7.5q-190 0 -190 190v250q0 110 62 164.5t171 54.5h43zM354 174v358q-85 0 -117 -22t-32 -90v-246q0 -38 21.5 -61t54.5 -23t53 22.5t20 61.5zM629 647v275q0 62 -17.5 88t-56.5 26t-56.5 -26t-17.5 -88v-275h148z" />
    <glyph glyph-name="ccedilla" unicode="&#xe7;" horiz-adv-x="530" 
d="M457 358v-180q0 -92 -50 -141t-141 -49l-14 -54q20 5 53 5q36 0 60 -23t24 -57q0 -33 -34.5 -64t-116.5 -31q-35 0 -74 9l10 47q21 -6 49 -6q25 0 48.5 10.5t23.5 32.5q0 18 -15 28.5t-28 10.5q-32 0 -49 -7l22 101q-69 11 -110 53t-41 115v764q0 219 211 219
q84 0 128 -46t44 -137v-188h-127v174q0 51 -13.5 71.5t-46.5 20.5q-69 0 -69 -92v-768q0 -29 6 -48t19.5 -28.5t37.5 -9.5q66 0 66 86v182h127z" />
    <glyph glyph-name="egrave" unicode="&#xe8;" 
d="M369 647v275q0 114 -84 114t-84 -114v-275h168zM369 205v160h127v-160q0 -217 -211 -217t-211 217v717q0 219 211 219t211 -219v-390h-295v-327q0 -115 84 -115t84 115zM133 1493h143l91 -223h-103z" />
    <glyph glyph-name="eacute" unicode="&#xe9;" 
d="M369 647v275q0 114 -84 114t-84 -114v-275h168zM369 205v160h127v-160q0 -217 -211 -217t-211 217v717q0 219 211 219t211 -219v-390h-295v-327q0 -115 84 -115t84 115zM293 1493h143l-131 -223h-102z" />
    <glyph glyph-name="ecircumflex" unicode="&#xea;" 
d="M369 647v275q0 114 -84 114t-84 -114v-275h168zM369 205v160h127v-160q0 -217 -211 -217t-211 217v717q0 219 211 219t211 -219v-390h-295v-327q0 -115 84 -115t84 115zM344 1270l-59 149l-60 -149h-119l91 223h176l90 -223h-119z" />
    <glyph glyph-name="edieresis" unicode="&#xeb;" 
d="M369 647v275q0 114 -84 114t-84 -114v-275h168zM369 205v160h127v-160q0 -217 -211 -217t-211 217v717q0 219 211 219t211 -219v-390h-295v-327q0 -115 84 -115t84 115zM119 1298v158h127v-158h-127zM324 1298v158h127v-158h-127z" />
    <glyph glyph-name="igrave" unicode="&#xec;" horiz-adv-x="303" 
d="M88 0v1126h127v-1126h-127zM0 1493h143l90 -223h-102z" />
    <glyph glyph-name="iacute" unicode="&#xed;" horiz-adv-x="303" 
d="M88 0v1126h127v-1126h-127zM160 1493h143l-131 -223h-102z" />
    <glyph glyph-name="icircumflex" unicode="&#xee;" horiz-adv-x="303" 
d="M88 0v1126h127v-1126h-127zM211 1270l-59 149l-60 -149h-119l90 223h177l90 -223h-119z" />
    <glyph glyph-name="idieresis" unicode="&#xef;" horiz-adv-x="303" 
d="M88 0v1126h127v-1126h-127zM-14 1298v158h127v-158h-127zM190 1298v158h127v-158h-127z" />
    <glyph glyph-name="eth" unicode="&#xf0;" 
d="M369 205v717q0 114 -84 114t-84 -114v-717q0 -115 84 -115t84 115zM442 1534l54 -59l-131 -97q79 -92 105 -225.5t26 -298.5v-649q0 -217 -211 -217t-211 217v717q0 219 211 219q50 0 73 -35h4q-3 56 -29.5 122t-51.5 89l-136 -98l-51 57l135 100q-55 57 -104 92l82 64
q62 -47 106 -94z" />
    <glyph glyph-name="ntilde" unicode="&#xf1;" 
d="M74 0v1126h119v-75h4q21 37 61.5 63.5t85.5 26.5q76 0 114 -48.5t38 -121.5v-971h-127v920q0 104 -80 104q-42 0 -65 -31.5t-23 -72.5v-920h-127zM170 1307h-70q0 58 29 98.5t92 40.5q33 0 74 -18.5t53 -18.5q18 0 34 12.5t17 34.5h70q0 -57 -29.5 -98t-91.5 -41
q-25 0 -43 7t-44 19.5t-40 12.5q-16 0 -33 -14.5t-18 -34.5z" />
    <glyph glyph-name="ograve" unicode="&#xf2;" 
d="M369 205v717q0 114 -84 114t-84 -114v-717q0 -115 84 -115t84 115zM74 205v717q0 219 211 219t211 -219v-717q0 -217 -211 -217t-211 217zM133 1493h143l91 -223h-103z" />
    <glyph glyph-name="oacute" unicode="&#xf3;" 
d="M369 205v717q0 114 -84 114t-84 -114v-717q0 -115 84 -115t84 115zM74 205v717q0 219 211 219t211 -219v-717q0 -217 -211 -217t-211 217zM293 1493h143l-131 -223h-102z" />
    <glyph glyph-name="ocircumflex" unicode="&#xf4;" 
d="M369 205v717q0 114 -84 114t-84 -114v-717q0 -115 84 -115t84 115zM74 205v717q0 219 211 219t211 -219v-717q0 -217 -211 -217t-211 217zM344 1270l-59 149l-60 -149h-119l91 223h176l90 -223h-119z" />
    <glyph glyph-name="otilde" unicode="&#xf5;" 
d="M369 205v717q0 114 -84 114t-84 -114v-717q0 -115 84 -115t84 115zM74 205v717q0 219 211 219t211 -219v-717q0 -217 -211 -217t-211 217zM170 1307h-70q0 58 29 98.5t92 40.5q33 0 74 -18.5t53 -18.5q18 0 34 12.5t17 34.5h70q0 -57 -29.5 -98t-91.5 -41q-25 0 -43 7
t-44 19.5t-40 12.5q-16 0 -33 -14.5t-18 -34.5z" />
    <glyph glyph-name="odieresis" unicode="&#xf6;" 
d="M369 205v717q0 114 -84 114t-84 -114v-717q0 -115 84 -115t84 115zM74 205v717q0 219 211 219t211 -219v-717q0 -217 -211 -217t-211 217zM119 1298v158h127v-158h-127zM324 1298v158h127v-158h-127z" />
    <glyph glyph-name="divide" unicode="&#xf7;" horiz-adv-x="1229" 
d="M96 471v104h1037v-104h-1037zM500 94q0 48 33.5 82.5t80.5 34.5q31 0 58 -16t42 -43t15 -58q0 -47 -33.5 -80.5t-81.5 -33.5q-46 0 -80 34t-34 80zM500 952q0 48 33.5 81.5t80.5 33.5q30 0 57 -15.5t42.5 -42.5t15.5 -57q0 -48 -33 -82t-82 -34q-47 0 -80.5 34.5
t-33.5 81.5z" />
    <glyph glyph-name="oslash" unicode="&#xf8;" 
d="M205 401l164 498v23q0 114 -84 114t-84 -114v-521h4zM369 205v536h-4l-164 -499v-37q0 -115 84 -115t84 115zM434 1092l41 112l47 -18l-51 -144q25 -47 25 -120v-717q0 -217 -211 -217q-100 0 -152 49l-39 -107l-47 19l49 139q-22 52 -22 117v717q0 219 211 219
q93 0 149 -49z" />
    <glyph glyph-name="ugrave" unicode="&#xf9;" 
d="M496 1126v-1126h-119v76h-4q-22 -36 -61.5 -62t-86.5 -26q-74 0 -112.5 48.5t-38.5 121.5v968h127v-919q0 -103 80 -103q41 0 64.5 32t23.5 71v919h127zM133 1493h143l91 -223h-103z" />
    <glyph glyph-name="uacute" unicode="&#xfa;" 
d="M496 1126v-1126h-119v76h-4q-22 -36 -61.5 -62t-86.5 -26q-74 0 -112.5 48.5t-38.5 121.5v968h127v-919q0 -103 80 -103q41 0 64.5 32t23.5 71v919h127zM293 1493h143l-131 -223h-102z" />
    <glyph glyph-name="ucircumflex" unicode="&#xfb;" 
d="M496 1126v-1126h-119v76h-4q-22 -36 -61.5 -62t-86.5 -26q-74 0 -112.5 48.5t-38.5 121.5v968h127v-919q0 -103 80 -103q41 0 64.5 32t23.5 71v919h127zM344 1270l-59 149l-60 -149h-119l91 223h176l90 -223h-119z" />
    <glyph glyph-name="udieresis" unicode="&#xfc;" 
d="M496 1126v-1126h-119v76h-4q-22 -36 -61.5 -62t-86.5 -26q-74 0 -112.5 48.5t-38.5 121.5v968h127v-919q0 -103 80 -103q41 0 64.5 32t23.5 71v919h127zM119 1298v158h127v-158h-127zM324 1298v158h127v-158h-127z" />
    <glyph glyph-name="yacute" unicode="&#xfd;" horiz-adv-x="530" 
d="M494 1126l-213 -1349h-127l45 223l-162 1126h127l90 -757h4l109 757h127zM274 1493h144l-131 -223h-103z" />
    <glyph glyph-name="thorn" unicode="&#xfe;" 
d="M74 -223v1716h119v-436h4q46 84 135 84q70 0 117 -51.5t47 -169.5v-756q0 -78 -40 -127t-106 -49q-104 0 -145 82h-4v-293h-127zM369 233v682q0 121 -74 121q-94 0 -94 -125v-684q0 -53 26.5 -88t65.5 -35q76 0 76 129z" />
    <glyph glyph-name="ydieresis" unicode="&#xff;" horiz-adv-x="530" 
d="M494 1126l-213 -1349h-127l45 223l-162 1126h127l90 -757h4l109 757h127zM100 1298v158h127v-158h-127zM305 1298v158h127v-158h-127z" />
    <glyph glyph-name="dotlessi" unicode="&#x131;" horiz-adv-x="303" 
d="M88 0v1116h127v-1116h-127z" />
    <glyph glyph-name="Lslash" unicode="&#x141;" horiz-adv-x="530" 
d="M0 500v135l104 113v731h136v-588l180 190v-135l-180 -190v-641h223v-115h-359v612z" />
    <glyph glyph-name="lslash" unicode="&#x142;" horiz-adv-x="303" 
d="M215 928l88 94v-156l-88 -94v-772h-127v633l-88 -94v155l88 94v691h127v-551z" />
    <glyph glyph-name="OE" unicode="&#x152;" horiz-adv-x="834" 
d="M434 117v1261h-76q-62 0 -90 -23.5t-28 -94.5v-1027q0 -69 28.5 -92.5t89.5 -23.5h76zM569 117h217v-117h-438q-81 0 -136 25t-81.5 71t-26.5 107v1087q0 94 61.5 148.5t182.5 54.5h432v-115h-211v-544h201v-117h-201v-600z" />
    <glyph glyph-name="oe" unicode="&#x153;" horiz-adv-x="834" 
d="M756 532h-275v-327q0 -61 17.5 -88t56.5 -27q34 0 54 27.5t20 87.5v160h127v-160q0 -117 -57.5 -167t-143.5 -50q-87 0 -133 82h-4q-38 -82 -150 -82q-66 0 -108 22.5t-62 71.5t-20 123v717q0 121 52.5 170t145.5 49q50 0 86.5 -22t59.5 -60q65 82 160 82q80 0 127 -46
t47 -173v-390zM354 174v780q0 36 -20.5 59t-52.5 23q-33 0 -54.5 -25.5t-21.5 -68.5v-743q0 -51 21 -80t55 -29q32 0 52.5 24.5t20.5 59.5zM629 647v275q0 62 -17.5 88t-56.5 26t-56.5 -26t-17.5 -88v-275h148z" />
    <glyph glyph-name="Scaron" unicode="&#x160;" 
d="M365 1106v182q0 103 -78 103q-44 0 -61 -27t-17 -76v-158q0 -80 31 -133l215 -372q49 -85 49 -183v-235q0 -70 -25.5 -119t-75.5 -74.5t-116 -25.5q-112 0 -166.5 53t-54.5 166v205h135v-197q0 -111 86 -111q82 0 82 111v209q0 69 -39 143l-199 348q-32 59 -44.5 98
t-12.5 93v180q0 219 213 219q112 0 162.5 -51.5t50.5 -157.5v-190h-135zM285 1632l59 150h119l-90 -226h-176l-91 226h119z" />
    <glyph glyph-name="scaron" unicode="&#x161;" horiz-adv-x="530" 
d="M334 793v168q0 75 -66 75q-65 0 -65 -80v-127q0 -42 47 -112l160 -225q45 -64 45 -123v-191q0 -92 -50 -141t-141 -49q-84 0 -136 43.5t-52 132.5v196h127v-174q0 -45 12.5 -70.5t50.5 -25.5q62 0 62 98v138q0 59 -47 123l-146 200q-32 44 -45.5 76.5t-13.5 75.5v145
q0 90 56 142.5t142 52.5q94 0 136.5 -50t42.5 -112v-186h-119zM266 1346l60 149h118l-90 -225h-176l-90 225h119z" />
    <glyph glyph-name="Ydieresis" unicode="&#x178;" 
d="M287 815l129 678h135l-199 -844v-649h-135v649l-199 844h136l129 -678h4zM119 1585v158h127v-158h-127zM324 1585v158h127v-158h-127z" />
    <glyph glyph-name="Zcaron" unicode="&#x17d;" horiz-adv-x="530" 
d="M49 139l305 1225h-286v115h413v-115l-305 -1249h303v-115h-430v139zM266 1616l60 147h118l-90 -221h-176l-90 221h119z" />
    <glyph glyph-name="zcaron" unicode="&#x17e;" horiz-adv-x="418" 
d="M37 147l213 867h-201v102h328v-110l-221 -904h225v-102h-344v147zM209 1331l59 148h119l-90 -222h-176l-90 222h119z" />
    <glyph glyph-name="florin" unicode="&#x192;" horiz-adv-x="565" 
d="M213 1034l16 281q11 190 164 190q24 0 66 -4v-102q-20 4 -35 4q-25 0 -45 -25.5t-23 -70.5l-16 -273h98l-8 -102h-94l-37 -977q-7 -178 -156 -178q-42 0 -73 14v103q22 -15 47 -15q26 0 39 27t16 92l37 934h-94l8 102h90z" />
    <glyph glyph-name="circumflex" unicode="&#x2c6;" horiz-adv-x="303" 
d="M211 1270l-59 149l-60 -149h-119l90 223h177l90 -223h-119z" />
    <glyph glyph-name="caron" unicode="&#x2c7;" horiz-adv-x="303" 
d="M152 1331l59 148h119l-90 -222h-177l-90 222h119z" />
    <glyph glyph-name="breve" unicode="&#x2d8;" horiz-adv-x="303" 
d="M-35 1442h70q0 -26 33 -46t84 -20q52 0 84 20t32 46h70q0 -89 -50.5 -122.5t-135.5 -33.5t-136 33.5t-51 122.5z" />
    <glyph glyph-name="dotaccent" unicode="&#x2d9;" horiz-adv-x="303" 
d="M88 1286v156h127v-156h-127z" />
    <glyph glyph-name="ring" unicode="&#x2da;" horiz-adv-x="303" 
d="M14 1358q0 56 40.5 96.5t97.5 40.5t97 -40t40 -97t-40 -97t-97 -40t-97.5 40.5t-40.5 96.5zM219 1358q0 27 -19 47t-48 20q-28 0 -48 -20t-20 -47q0 -26 21 -47t47 -21q27 0 47 21t20 47z" />
    <glyph glyph-name="ogonek" unicode="&#x2db;" horiz-adv-x="303" 
d="M260 -160l21 -45q-62 -16 -134 -16q-66 0 -103.5 21t-37.5 55q0 40 46.5 86t109.5 67h74q-70 -44 -98.5 -75t-28.5 -58q0 -21 25 -34t61 -13q35 0 65 12z" />
    <glyph glyph-name="tilde" unicode="&#x2dc;" horiz-adv-x="303" 
d="M37 1307h-70q0 58 29 98.5t92 40.5q33 0 74 -18.5t53 -18.5q18 0 34 12.5t17 34.5h70q0 -57 -29.5 -98t-91.5 -41q-25 0 -43 7t-44 19.5t-40 12.5q-16 0 -33 -14.5t-18 -34.5z" />
    <glyph glyph-name="hungarumlaut" unicode="&#x2dd;" horiz-adv-x="303" 
d="M170 1257l90 222h143l-131 -222h-102zM-35 1257l90 222h144l-131 -222h-103z" />
    <glyph glyph-name="emdash" unicode="&#x2013;" horiz-adv-x="1024" 
d="M0 672h1024v-103h-1024v103z" />
    <glyph glyph-name="endash" unicode="&#x2014;" horiz-adv-x="2048" 
d="M0 672h2048v-103h-2048v103z" />
    <glyph glyph-name="quoteleft" unicode="&#x2018;" horiz-adv-x="344" 
d="M59 1155l115 338h111l-74 -338h-152z" />
    <glyph glyph-name="quoteright" unicode="&#x2019;" horiz-adv-x="344" 
d="M59 1155l74 338h152l-115 -338h-111z" />
    <glyph glyph-name="quotesinglbase" unicode="&#x201a;" horiz-adv-x="344" 
d="M59 -182l74 340h152l-115 -340h-111z" />
    <glyph glyph-name="quotedblleft" unicode="&#x201c;" 
d="M49 1155l115 338h110l-73 -338h-152zM295 1155l115 338h110l-74 -338h-151z" />
    <glyph glyph-name="quotedblright" unicode="&#x201d;" 
d="M295 1155l74 338h151l-114 -338h-111zM49 1155l74 338h151l-114 -338h-111z" />
    <glyph glyph-name="quotedblbase" unicode="&#x201e;" 
d="M295 -182l74 340h151l-114 -340h-111zM49 -182l74 340h151l-114 -340h-111z" />
    <glyph glyph-name="dagger" unicode="&#x2020;" 
d="M221 1126v367h127v-367h197v-102h-197v-1024h-127v1024h-196v102h196z" />
    <glyph glyph-name="daggerdbl" unicode="&#x2021;" 
d="M221 469v555h-196v102h196v367h127v-367h197v-102h-197v-555h197v-102h-197v-367h-127v367h-196v102h196z" />
    <glyph glyph-name="bullet" unicode="&#x2022;" horiz-adv-x="1024" 
d="M143 748q0 73 28.5 142t80 120.5t118 79.5t142.5 28q77 0 144 -28t118 -79t79 -118.5t28 -144.5q0 -101 -49.5 -186.5t-135 -136t-184.5 -50.5t-184.5 50.5t-135 136t-49.5 186.5z" />
    <glyph glyph-name="ellipsis" unicode="&#x2026;" horiz-adv-x="2048" 
d="M274 0v158h136v-158h-136zM956 0v158h136v-158h-136zM1638 0v158h136v-158h-136z" />
    <glyph glyph-name="perthousand" unicode="&#x2030;" horiz-adv-x="1401" 
d="M63 944v402q0 82 41.5 120.5t124.5 38.5q84 0 125 -38.5t41 -120.5v-402q0 -84 -40.5 -123t-125.5 -39q-84 0 -125 39t-41 123zM285 928v432q0 63 -56 63q-55 0 -55 -63v-432q4 -64 55 -64q56 0 56 64zM586 150v401q0 83 41 121.5t125 38.5q166 0 166 -160v-401
q0 -84 -40.5 -123t-125.5 -39t-125.5 39t-40.5 123zM807 135v430q0 64 -55 64q-56 0 -56 -64v-430q4 -65 56 -65q55 0 55 65zM1006 150v401q0 160 165 160q166 0 166 -160v-401q0 -84 -40.5 -123t-125.5 -39q-84 0 -124.5 39t-40.5 123zM1227 135v430q0 64 -56 64
q-55 0 -55 -64v-430q4 -65 55 -65q56 0 56 65zM184 -12l512 1517h103l-512 -1517h-103z" />
    <glyph glyph-name="guilsinglleft" unicode="&#x2039;" horiz-adv-x="342" 
d="M57 625l117 434h111l-101 -434l101 -443h-103z" />
    <glyph glyph-name="guilsinglright" unicode="&#x203a;" horiz-adv-x="342" 
d="M158 616l-101 443h103l125 -443l-117 -434h-111z" />
    <glyph glyph-name="fraction" unicode="&#x2044;" horiz-adv-x="266" 
d="M-117 0l398 1479h102l-397 -1479h-103z" />
    <glyph glyph-name="trademark" unicode="&#x2122;" horiz-adv-x="2028" 
d="M408 641v762h-277v90h655v-90h-276v-762h-102zM1675 641v762h-4l-305 -762h-61l-306 762h-4v-762h-102v852h174l268 -694l269 694h174v-852h-103z" />
    <glyph glyph-name="minus" unicode="&#x2212;" horiz-adv-x="1229" 
d="M96 467v102h1037v-102h-1037z" />
    <glyph glyph-name="periodcentered" unicode="&#x2219;" horiz-adv-x="283" 
d="M27 659q0 48 33.5 82.5t80.5 34.5q31 0 58 -16t42 -43t15 -58q0 -47 -33.5 -80.5t-81.5 -33.5q-46 0 -80 34t-34 80z" />
    <glyph glyph-name="fi" unicode="&#xf001;" horiz-adv-x="645" 
d="M430 0v1116h127v-1116h-127zM426 1323v156h135v-156h-135zM94 0v1014h-63v102h63v205q0 84 35 127t125 43h57v-102h-26q-64 0 -64 -84v-189h90v-102h-90v-1014h-127z" />
    <glyph glyph-name="fl" unicode="&#xf002;" horiz-adv-x="645" 
d="M430 0v1479h127v-1479h-127zM94 0v1014h-63v102h63v205q0 84 35 127t125 43h57v-102h-26q-64 0 -64 -84v-189h90v-102h-90v-1014h-127z" />
    </font>
</defs>
</svg>
